<svg width="36" height="36" viewBox="0 0 36 36" fill="none" xmlns="http://www.w3.org/2000/svg">
<circle cx="18" cy="18" r="18" fill="#FFDB21"/>
<path d="M15.93 13.102V19.864C15.93 20.9 15.6453 21.698 15.076 22.258C14.516 22.818 13.7367 23.098 12.738 23.098C11.6553 23.098 10.7967 22.7947 10.162 22.188C9.52733 21.572 9.21 20.69 9.21 19.542H11.576C11.576 20.466 11.926 20.928 12.626 20.928C13.2327 20.928 13.536 20.5733 13.536 19.864V13.102H15.93ZM24.6216 20.214C24.6216 20.7367 24.4863 21.2173 24.2156 21.656C23.9543 22.0947 23.5623 22.4447 23.0396 22.706C22.5263 22.9673 21.9009 23.098 21.1636 23.098C20.0529 23.098 19.1383 22.8273 18.4196 22.286C17.7009 21.7447 17.3089 20.9887 17.2436 20.018H19.7916C19.8289 20.3913 19.9596 20.6853 20.1836 20.9C20.4169 21.1147 20.7109 21.222 21.0656 21.222C21.3736 21.222 21.6163 21.138 21.7936 20.97C21.9709 20.802 22.0596 20.578 22.0596 20.298C22.0596 20.046 21.9756 19.836 21.8076 19.668C21.6489 19.5 21.4483 19.3647 21.2056 19.262C20.9629 19.15 20.6269 19.0193 20.1976 18.87C19.5723 18.6553 19.0589 18.45 18.6576 18.254C18.2656 18.0487 17.9249 17.75 17.6356 17.358C17.3556 16.9567 17.2156 16.4387 17.2156 15.804C17.2156 15.216 17.3649 14.7073 17.6636 14.278C17.9623 13.8487 18.3729 13.522 18.8956 13.298C19.4276 13.0647 20.0343 12.948 20.7156 12.948C21.8169 12.948 22.6896 13.2093 23.3336 13.732C23.9869 14.2547 24.3556 14.9733 24.4396 15.888H21.8496C21.8029 15.5613 21.6816 15.3047 21.4856 15.118C21.2989 14.922 21.0423 14.824 20.7156 14.824C20.4356 14.824 20.2069 14.8987 20.0296 15.048C19.8616 15.1973 19.7776 15.4167 19.7776 15.706C19.7776 15.9393 19.8523 16.14 20.0016 16.308C20.1603 16.4667 20.3563 16.5973 20.5896 16.7C20.8229 16.8027 21.1589 16.9333 21.5976 17.092C22.2323 17.3067 22.7503 17.5213 23.1516 17.736C23.5529 17.9413 23.8983 18.2447 24.1876 18.646C24.4769 19.0473 24.6216 19.57 24.6216 20.214Z" fill="#34364A"/>
</svg>
